<svg width="218px" height="52px" viewBox="0 0 218 52" version="1.1" xmlns="http://www.w3.org/2000/svg" xmlns:xlink="http://www.w3.org/1999/xlink">
    <title>Group 4</title>
    <defs>
        <polygon id="path-1" points="-2.84217094e-14 50.7584457 217.909358 50.7584457 217.909358 0.00748913043 -2.84217094e-14 0.00748913043"></polygon>
    </defs>
    <g id="Page-1" stroke="none" stroke-width="1" fill="none" fill-rule="evenodd">
        <g id="Group-4" transform="translate(0.000000, 0.089380)">
            <polygon id="Fill-1" fill="#FEFEFE" points="0 39.9106196 0 50.9106196 0.902089308 50.9106196 0.902089308 45.5080263 5.49979517 45.5080263 5.49979517 44.7995085 0.902089308 44.7995085 0.902089308 40.6179778 6 40.6179778 6 39.9106196"></polygon>
            <path d="M7.00434,39.6877826 L9.79359263,39.6877826 C10.9604663,39.6877826 11.8554137,39.942413 12.4738453,40.4505217 C13.0911295,40.9597826 13.3997716,41.6453261 13.3997716,42.5106087 C13.3997716,43.7745435 12.7102032,44.659413 11.3287716,45.1721304 C11.6867505,45.3426522 12.1697926,45.8991522 12.7767505,46.8381739 L15.2390032,50.6161522 L14.2430874,50.6161522 L12.3464874,47.6216522 C11.71314,46.620413 11.2209189,45.9959348 10.8663821,45.7482174 C10.51414,45.4993478 9.99667684,45.3760652 9.31743474,45.3760652 L7.84536105,45.3760652 L7.84536105,50.6161522 L7.00434,50.6161522 L7.00434,39.6877826 Z M7.84536105,40.3906087 L7.84536105,44.6709348 L9.65361368,44.6709348 C10.5715084,44.6709348 11.2748453,44.4854348 11.7601821,44.1121304 C12.2455189,43.7388261 12.4887611,43.2111304 12.4887611,42.5278913 C12.4887611,41.8550217 12.2409295,41.3307826 11.7498558,40.9551739 C11.25534,40.578413 10.5462663,40.3906087 9.62034,40.3906087 L7.84536105,40.3906087 Z" id="Fill-2" fill="#FEFEFE"></path>
            <path d="M21.2030242,39.5471022 C22.8127821,39.5471022 24.1758558,40.0909283 25.29454,41.1774283 C26.4132242,42.2650804 26.9708453,43.5912326 26.9708453,45.1558848 C26.9708453,46.7159283 26.4132242,48.0374717 25.29454,49.1262761 C24.1758558,50.2139283 22.8127821,50.7566022 21.2030242,50.7566022 C19.6001505,50.7566022 18.2405189,50.2139283 17.1275716,49.1262761 C16.0146242,48.0374717 15.4570032,46.7159283 15.4570032,45.1558848 C15.4570032,43.5912326 16.0146242,42.2650804 17.1275716,41.1774283 C18.2405189,40.0909283 19.6001505,39.5471022 21.2030242,39.5471022 M21.2340032,49.9754283 C22.5878979,49.9754283 23.7318242,49.5087978 24.6646347,48.5789935 C25.5951505,47.6468848 26.0609821,46.5062326 26.0609821,45.1558848 C26.0609821,43.7986239 25.5951505,42.6556674 24.6646347,41.725863 C23.7318242,40.7949065 22.5878979,40.3294283 21.2340032,40.3294283 C19.8743716,40.3294283 18.7224137,40.7949065 17.7827189,41.725863 C16.8395821,42.6556674 16.3680137,43.7986239 16.3680137,45.1558848 C16.3680137,46.5062326 16.8395821,47.6468848 17.7827189,48.5789935 C18.7224137,49.5087978 19.8743716,49.9754283 21.2340032,49.9754283" id="Fill-4" fill="#FEFEFE"></path>
            <polygon id="Fill-6" fill="#FEFEFE" points="38.1502295 39.6877826 34.0151137 44.7631087 29.8547558 39.6877826 29.0137347 39.6877826 29.0137347 50.6161522 29.8547558 50.6161522 29.8547558 40.9240652 34.0116716 46.0328043 38.1525242 40.9240652 38.1525242 50.6161522 39.0015768 50.6161522 39.0015768 39.6877826"></polygon>
            <path d="M45.9509579,39.6877826 L48.2181579,39.6877826 C49.4068316,39.6877826 50.3086632,39.9378043 50.9213579,40.4378478 C51.5340526,40.9390435 51.8415474,41.6303478 51.8415474,42.5106087 C51.8415474,43.5648478 51.3194947,44.3759783 50.2753895,44.944 C51.9516947,45.3103913 52.7915684,46.2332826 52.7915684,47.7149783 C52.7915684,48.601 52.4634211,49.3061304 51.8059789,49.8303696 C51.1473895,50.3546087 50.2593263,50.6161522 49.1360526,50.6161522 L45.9509579,50.6161522 L45.9509579,39.6877826 Z M46.7919789,40.3906087 L46.7919789,44.7504348 L47.9611474,44.7504348 C49.9403579,44.7504348 50.9293895,44.0245652 50.9293895,42.5751304 C50.9293895,41.1176304 49.9288842,40.3906087 47.9301684,40.3906087 L46.7919789,40.3906087 Z M46.7919789,45.4613261 L46.7919789,49.9133261 L49.0431158,49.9133261 C49.9736316,49.9133261 50.6804105,49.7105435 51.1634526,49.3107391 C51.6464947,48.9097826 51.8874421,48.3717174 51.8874421,47.6976957 C51.8874421,46.2067826 50.8169474,45.4613261 48.6782526,45.4613261 L46.7919789,45.4613261 Z" id="Fill-8" fill="#FEFEFE"></path>
            <mask id="mask-2" fill="white">
                <use xlink:href="#path-1"></use>
            </mask>
            <g id="Clip-11"></g>
            <polygon id="Fill-10" fill="#FEFEFE" mask="url(#mask-2)" points="54.3898526 50.6178804 55.2308737 50.6178804 55.2308737 39.6883587 54.3898526 39.6883587"></polygon>
            <path d="M57.7227284,39.6877826 L60.5119811,39.6877826 C61.6800021,39.6877826 62.5738021,39.942413 63.1922337,40.4505217 C63.8106653,40.9597826 64.1193074,41.6453261 64.1193074,42.5106087 C64.1193074,43.7745435 63.4285916,44.659413 62.04716,45.1721304 C62.4051389,45.3426522 62.8881811,45.8991522 63.4962863,46.8381739 L65.9573916,50.6161522 L64.9614758,50.6161522 L63.0660232,47.6216522 C62.4315284,46.620413 61.9393074,45.9959348 61.5859179,45.7482174 C61.2325284,45.4993478 60.7162126,45.3760652 60.0358232,45.3760652 L58.5648968,45.3760652 L58.5648968,50.6161522 L57.7227284,50.6161522 L57.7227284,39.6877826 Z M58.5648968,40.3906087 L58.5648968,44.6709348 L60.3720021,44.6709348 C61.2910442,44.6709348 61.9932337,44.4854348 62.4785705,44.1121304 C62.9650547,43.7388261 63.2082968,43.2111304 63.2082968,42.5278913 C63.2082968,41.8550217 62.9604653,41.3307826 62.4682442,40.9551739 C61.9737284,40.578413 61.2646547,40.3906087 60.3398758,40.3906087 L58.5648968,40.3906087 Z" id="Fill-12" fill="#FEFEFE" mask="url(#mask-2)"></path>
            <polygon id="Fill-13" fill="#FEFEFE" mask="url(#mask-2)" points="75.9741474 39.6877826 71.8390316 44.7631087 67.6798211 39.6877826 66.8376526 39.6877826 66.8376526 50.6161522 67.6798211 50.6161522 67.6798211 40.9240652 71.8367368 46.0328043 75.9764421 40.9240652 75.9764421 50.6161522 76.8254947 50.6161522 76.8254947 39.6877826"></polygon>
            <polygon id="Fill-14" fill="#FEFEFE" mask="url(#mask-2)" points="79.3106947 50.6178804 80.1505684 50.6178804 80.1505684 39.6883587 79.3106947 39.6883587"></polygon>
            <polygon id="Fill-15" fill="#FEFEFE" mask="url(#mask-2)" points="91.5980926 39.6877826 91.5980926 49.2404565 83.3439242 39.6877826 82.6302611 39.6877826 82.6302611 50.6161522 83.4724295 50.6161522 83.4724295 41.0646304 91.7472505 50.6161522 92.4379663 50.6161522 92.4379663 39.6877826"></polygon>
            <path d="M104.055531,40.4775978 L104.055531,41.4315978 C102.768183,40.6965109 101.481983,40.3289674 100.199225,40.3289674 C98.8223832,40.3289674 97.6761621,40.7886848 96.7640042,41.7058152 C95.8495516,42.6240978 95.3917516,43.7739674 95.3917516,45.1554239 C95.3917516,46.5380326 95.8438147,47.68675 96.7479411,48.6027283 C97.6520674,49.5175543 98.8797516,49.9749674 100.432141,49.9749674 C101.55312,49.9749674 102.549036,49.7502935 103.415299,49.30325 L103.415299,46.3525326 L101.11712,46.3525326 L101.11712,45.6485543 L104.266646,45.6485543 L104.266646,49.8344022 C102.981594,50.449663 101.694246,50.7584457 100.401162,50.7584457 C98.7145305,50.7584457 97.3044147,50.2203804 96.1754042,49.1454022 C95.0452463,48.0715761 94.4795937,46.7304457 94.4795937,45.1243152 C94.4795937,43.5285543 95.03492,42.2000978 96.1432779,41.1389457 C97.2516358,40.0777935 98.6456884,39.5466413 100.324288,39.5466413 C101.464773,39.5466413 102.710815,39.8565761 104.055531,40.4775978" id="Fill-16" fill="#FEFEFE" mask="url(#mask-2)"></path>
            <polygon id="Fill-17" fill="#FEFEFE" mask="url(#mask-2)" points="114.526415 39.6877826 114.526415 44.7331522 107.267015 44.7331522 107.267015 39.6877826 106.423699 39.6877826 106.423699 50.6161522 107.267015 50.6161522 107.267015 45.4371304 114.526415 45.4371304 114.526415 50.6161522 115.375467 50.6161522 115.375467 39.6877826"></polygon>
            <path d="M121.731085,39.6089739 L116.699875,50.6168435 L117.583348,50.6168435 L119.298664,46.8365609 L124.621306,46.8365609 L126.343506,50.6168435 L127.224685,50.6168435 L122.193475,39.6089739 L121.731085,39.6089739 Z M121.954822,40.9858217 L124.298896,46.1337348 L119.617633,46.1337348 L121.954822,40.9858217 Z" id="Fill-18" fill="#FEFEFE" mask="url(#mask-2)"></path>
            <polygon id="Fill-19" fill="#FEFEFE" mask="url(#mask-2)" points="137.648527 39.6877826 133.513412 44.7631087 129.353054 39.6877826 128.509738 39.6877826 128.509738 50.6161522 129.353054 50.6161522 129.353054 40.9240652 133.509969 46.0328043 137.650822 40.9240652 137.650822 50.6161522 138.498727 50.6161522 138.498727 39.6877826"></polygon>
            <polygon id="Fill-20" fill="#FEFEFE" mask="url(#mask-2)" points="154.538594 39.6877826 150.403478 44.7631087 146.244267 39.6877826 145.400952 39.6877826 145.400952 50.6161522 146.244267 50.6161522 146.244267 40.9240652 150.398888 46.0328043 154.539741 40.9240652 154.539741 50.6161522 155.389941 50.6161522 155.389941 39.6877826"></polygon>
            <polygon id="Fill-21" fill="#FEFEFE" mask="url(#mask-2)" points="157.8756 50.6178804 158.717768 50.6178804 158.717768 39.6883587 157.8756 39.6883587"></polygon>
            <path d="M161.209967,39.6877826 L165.015788,39.6877826 C166.94222,39.6877826 168.410852,40.1947391 169.42742,41.2121087 C170.440546,42.2306304 170.948831,43.5452609 170.948831,45.1571522 C170.948831,46.7356304 170.446283,48.0421957 169.442336,49.0722391 C168.437241,50.1022826 167.012209,50.6161522 165.163799,50.6161522 L161.209967,50.6161522 L161.209967,39.6877826 Z M162.050988,40.3906087 L162.050988,49.9133261 L165.117904,49.9133261 C166.523431,49.9133261 167.696041,49.4789565 168.632294,48.6090652 C169.569694,47.7414783 170.035525,46.5893043 170.035525,45.1571522 C170.035525,43.7526522 169.574283,42.6073913 168.650652,41.7213696 C167.72702,40.8341957 166.531462,40.3906087 165.061683,40.3906087 L162.050988,40.3906087 Z" id="Fill-22" fill="#FEFEFE" mask="url(#mask-2)"></path>
            <path d="M178.139274,40.2346043 L178.139274,41.166713 C177.194989,40.6079087 176.381505,40.3290826 175.699968,40.3290826 C175.047116,40.3290826 174.499821,40.5284087 174.060379,40.928213 C173.620937,41.3268652 173.401789,41.8199957 173.401789,42.4099087 C173.401789,42.8327565 173.531442,43.2129739 173.793042,43.551713 C174.0512,43.8916043 174.593905,44.2165174 175.421158,44.5310609 C176.247263,44.8433 176.847337,45.1048435 177.227116,45.3122348 C177.606895,45.5207783 177.928158,45.8249522 178.194347,46.2201478 C178.459389,46.6164957 178.591337,47.1303652 178.591337,47.7606043 C178.591337,48.6016913 178.284989,49.3102783 177.672295,49.8898217 C177.0596,50.468213 176.310368,50.7574087 175.429189,50.7574087 C174.525063,50.7574087 173.5934,50.4394087 172.637642,49.8022565 L172.637642,48.8090826 C173.693221,49.5868 174.607674,49.9750826 175.382147,49.9750826 C176.024674,49.9750826 176.570821,49.765387 177.013705,49.3448435 C177.457737,48.9254522 177.680326,48.4104304 177.680326,47.7997783 C177.680326,47.3354522 177.541495,46.917213 177.266126,46.5450609 C176.990758,46.1717565 176.434284,45.8238 175.592116,45.498887 C174.752242,45.1739739 174.149874,44.9147348 173.788453,44.7154087 C173.429326,44.5160826 173.121832,44.2338 172.868263,43.8662565 C172.618137,43.4998652 172.490779,43.0263217 172.490779,42.4467783 C172.490779,41.6460174 172.798274,40.9604739 173.410968,40.3947565 C174.022516,39.8290391 174.761421,39.5467565 175.623095,39.5467565 C176.469853,39.5467565 177.307432,39.7760391 178.139274,40.2346043" id="Fill-23" fill="#FEFEFE" mask="url(#mask-2)"></path>
            <polygon id="Fill-24" fill="#FEFEFE" mask="url(#mask-2)" points="188.611191 39.6877826 188.611191 44.7331522 181.349496 44.7331522 181.349496 39.6877826 180.508475 39.6877826 180.508475 50.6161522 181.349496 50.6161522 181.349496 45.4371304 188.611191 45.4371304 188.611191 50.6161522 189.459096 50.6161522 189.459096 39.6877826"></polygon>
            <polygon id="Fill-25" fill="#FEFEFE" mask="url(#mask-2)" points="191.968505 50.6178804 192.809526 50.6178804 192.809526 39.6883587 191.968505 39.6883587"></polygon>
            <path d="M195.302758,39.6877826 L198.092011,39.6877826 C199.260032,39.6877826 200.153832,39.942413 200.772263,40.4505217 C201.390695,40.9597826 201.699337,41.6453261 201.699337,42.5106087 C201.699337,43.7745435 201.008621,44.659413 199.627189,45.1721304 C199.985168,45.3426522 200.468211,45.8991522 201.076316,46.8381739 L203.537421,50.6161522 L202.541505,50.6161522 L200.644905,47.6216522 C200.011558,46.620413 199.519337,45.9959348 199.165947,45.7482174 C198.812558,45.4993478 198.296242,45.3760652 197.615853,45.3760652 L196.143779,45.3760652 L196.143779,50.6161522 L195.302758,50.6161522 L195.302758,39.6877826 Z M196.143779,40.3906087 L196.143779,44.6709348 L197.952032,44.6709348 C198.868779,44.6709348 199.574411,44.4854348 200.0586,44.1121304 C200.543937,43.7388261 200.786032,43.2111304 200.786032,42.5278913 C200.786032,41.8550217 200.539347,41.3307826 200.048274,40.9551739 C199.553758,40.578413 198.844684,40.3906087 197.919905,40.3906087 L196.143779,40.3906087 Z" id="Fill-26" fill="#FEFEFE" mask="url(#mask-2)"></path>
            <polygon id="Fill-27" fill="#FEFEFE" mask="url(#mask-2)" points="204.464839 39.6877826 204.464839 50.6161522 210.525239 50.6161522 210.525239 49.9133261 205.307007 49.9133261 205.307007 45.4763043 210.269376 45.4763043 210.269376 44.765413 205.307007 44.765413 205.307007 40.3894565 210.401323 40.3894565 210.401323 39.6877826"></polygon>
            <path d="M217.3896,40.2346043 L217.3896,41.166713 C216.444168,40.6079087 215.632979,40.3290826 214.951442,40.3290826 C214.298589,40.3290826 213.750147,40.5284087 213.310705,40.928213 C212.872411,41.3268652 212.653263,41.8199957 212.653263,42.4099087 C212.653263,42.8327565 212.782916,43.2129739 213.042221,43.551713 C213.302674,43.8916043 213.845379,44.2165174 214.670337,44.5310609 C215.497589,44.8433 216.098811,45.1048435 216.477442,45.3122348 C216.857221,45.5207783 217.178484,45.8249522 217.444674,46.2201478 C217.709716,46.6164957 217.841663,47.1303652 217.841663,47.7606043 C217.841663,48.6016913 217.536463,49.3102783 216.924916,49.8898217 C216.311074,50.468213 215.561842,50.7574087 214.679516,50.7574087 C213.776537,50.7574087 212.846021,50.4394087 211.890263,49.8022565 L211.890263,48.8090826 C212.943547,49.5868 213.858,49.9750826 214.633621,49.9750826 C215.276147,49.9750826 215.82,49.765387 216.266326,49.3448435 C216.708063,48.9254522 216.930653,48.4104304 216.930653,47.7997783 C216.930653,47.3354522 216.791821,46.917213 216.5176,46.5450609 C216.242232,46.1717565 215.684611,45.8238 214.842442,45.498887 C214.001421,45.1739739 213.4002,44.9147348 213.038779,44.7154087 C212.679653,44.5160826 212.372158,44.2338 212.119737,43.8662565 C211.868463,43.4998652 211.742253,43.0263217 211.742253,42.4467783 C211.742253,41.6460174 212.049747,40.9604739 212.661295,40.3947565 C213.273989,39.8290391 214.012895,39.5467565 214.875716,39.5467565 C215.720179,39.5467565 216.558905,39.7760391 217.3896,40.2346043" id="Fill-28" fill="#FEFEFE" mask="url(#mask-2)"></path>
            <path d="M46.5941726,0.00864130435 L38.1174147,13.7275761 L29.6406568,0.00864130435 L22.0783516,0.00864130435 L22.0783516,4.29703261 C20.1863411,1.41429348 17.0173095,0.00864130435 12.4381621,0.00864130435 L0.000688421053,0.00864130435 L0.000688421053,33.3859674 L12.5643726,33.3859674 C16.6467095,33.3859674 19.8214779,32.2222717 22.0783516,29.832663 L22.0783516,33.3859674 L29.9435621,33.3859674 L29.9435621,12.010837 L37.3222884,24.6859022 L38.9102463,24.6859022 L46.2878253,12.010837 L46.2878253,33.3859674 L54.1564779,33.3859674 L54.1564779,0.00864130435 L46.5941726,0.00864130435 Z M22.0783516,12.3795326 L22.0783516,17.5839022 C21.0399832,16.6656196 19.8214779,15.8717717 18.3574358,15.2565109 C20.0039095,14.5237283 21.2224147,13.5420761 22.0783516,12.3795326 L22.0783516,12.3795326 Z M8.35353053,18.9284891 L11.5891095,18.9284891 C13.11052,18.9284891 14.33132,19.3617065 15.1218568,20.2753804 C15.7976568,21.0749891 16.1602253,22.1799239 16.1602253,23.4634457 C16.1602253,26.4625543 14.4540884,27.9350326 11.03952,27.9350326 L8.35353053,27.9350326 L8.35353053,18.9284891 Z M10.12392,13.4810109 L8.35353053,13.4810109 L8.35353053,5.3973587 L10.12392,5.3973587 C13.3572042,5.3973587 14.94172,6.74309783 14.94172,9.43918478 C14.94172,12.130663 13.3572042,13.4810109 10.12392,13.4810109 L10.12392,13.4810109 Z" id="Fill-29" fill="#FEFEFE" mask="url(#mask-2)"></path>
            <polygon id="Fill-30" fill="#FEFEFE" mask="url(#mask-2)" points="56.9037368 1.14353261 217.399926 1.14353261 217.399926 0.00864130435 56.9037368 0.00864130435"></polygon>
            <polygon id="Fill-31" fill="#FEFEFE" mask="url(#mask-2)" points="56.9037368 33.3871196 217.399926 33.3871196 217.399926 32.2510761 56.9037368 32.2510761"></polygon>
            <path d="M69.6087768,9.39136957 C68.5830295,8.62863043 66.7644505,7.33358696 64.4823347,7.33358696 C60.9117242,7.33358696 60.2818189,9.9905 60.2818189,10.8200652 C60.2818189,13.1117391 62.5639347,14.2731304 64.5477347,15.2697609 C68.9478926,17.4623478 70.5347032,18.7573913 70.5347032,22.1102174 C70.5347032,26.3951522 66.8963979,28.3227391 63.9545453,28.3227391 C61.8387979,28.3227391 59.7873032,27.4920217 58.0329768,26.2638043 L58.0329768,23.2082391 C59.2227979,24.4030435 61.3741137,26.0644783 63.8879979,26.0644783 C67.0604716,26.0644783 68.0862189,23.6391522 68.0862189,22.279587 C68.0862189,20.848587 67.6571032,19.4890217 63.0274716,17.2964348 C59.2227979,15.5036522 57.8356295,13.6094783 57.8356295,11.0873696 C57.8356295,7.53291304 60.7453558,5.07417391 64.5179032,5.07417391 C67.0294926,5.07417391 68.7161242,6.0373913 69.6087768,6.56969565 L69.6087768,9.39136957 Z" id="Fill-32" fill="#FEFEFE" mask="url(#mask-2)"></path>
            <path d="M71.2255337,16.6982261 C71.2255337,10.7207478 75.6922389,5.07509565 83.2637232,5.07509565 C90.6045863,5.07509565 95.3363337,10.5214217 95.3363337,16.6982261 C95.3363337,23.4730087 89.9127232,28.3225087 83.1317758,28.3225087 C76.5183442,28.3225087 71.2255337,23.3739217 71.2255337,16.6982261 M92.6893547,16.6302478 C92.6893547,12.1494435 89.2495442,7.43359565 83.2637232,7.43359565 C77.4752495,7.43359565 73.8702179,11.8498783 73.8702179,16.730487 C73.8702179,22.2436391 78.2703758,25.9651609 83.0985021,25.9651609 C88.4888389,25.9651609 92.6893547,22.0788783 92.6893547,16.6302478" id="Fill-33" fill="#FEFEFE" mask="url(#mask-2)"></path>
            <polygon id="Fill-34" fill="#FEFEFE" mask="url(#mask-2)" points="99.2015884 25.8312783 109.849167 25.8312783 109.849167 28.022713 96.7198305 28.022713 96.7198305 5.37327826 99.2015884 5.37327826"></polygon>
            <path d="M128.962604,17.5285978 C128.962604,20.6844022 128.664288,22.2778587 127.705088,23.9369891 C126.744741,25.6329891 124.234299,28.322163 119.437152,28.322163 C117.918036,28.322163 113.716373,27.990337 111.368857,24.3702065 C110.179036,22.5440109 109.848594,20.9159891 109.848594,17.5285978 L109.848594,5.37431522 L112.329204,5.37431522 L112.329204,17.6610978 C112.329204,21.0150761 112.82372,22.5762717 114.147783,23.9715543 C115.503973,25.40025 117.455646,26.0650543 119.437152,26.0650543 C122.911383,26.0650543 124.927309,24.1374674 125.754562,22.4103587 C126.483141,20.9159891 126.483141,18.225663 126.483141,17.6610978 L126.483141,5.37431522 L128.962604,5.37431522 L128.962604,17.5285978 Z" id="Fill-35" fill="#FEFEFE" mask="url(#mask-2)"></path>
            <polygon id="Fill-36" fill="#FEFEFE" mask="url(#mask-2)" points="149.794569 7.56528913 141.657433 7.56528913 141.657433 28.0232891 139.177969 28.0232891 139.177969 7.56528913 131.04198 7.56528913 131.04198 5.37500652 149.794569 5.37500652"></polygon>
            <polygon id="Fill-37" fill="#FEFEFE" mask="url(#mask-2)" points="151.311505 28.0225978 153.790968 28.0225978 153.790968 5.37316304 151.311505 5.37316304"></polygon>
            <path d="M156.269743,16.6982261 C156.269743,10.7207478 160.737596,5.07509565 168.30908,5.07509565 C175.651091,5.07509565 180.380543,10.5214217 180.380543,16.6982261 C180.380543,23.4730087 174.95808,28.3225087 168.179427,28.3225087 C161.563701,28.3225087 156.269743,23.3739217 156.269743,16.6982261 M177.734712,16.6302478 C177.734712,12.1494435 174.294901,7.43359565 168.30908,7.43359565 C162.524048,7.43359565 158.919017,11.8498783 158.919017,16.730487 C158.919017,22.2436391 163.315733,25.9651609 168.145006,25.9651609 C173.533048,25.9651609 177.734712,22.0788783 177.734712,16.6302478" id="Fill-38" fill="#FEFEFE" mask="url(#mask-2)"></path>
            <polygon id="Fill-39" fill="#FEFEFE" mask="url(#mask-2)" points="203.227861 28.0230587 201.112114 28.0230587 185.006503 9.3578413 185.006503 28.0230587 182.593587 28.0230587 182.593587 5.37362391 184.70704 5.37362391 200.813798 24.0376891 200.813798 5.37362391 203.227861 5.37362391"></polygon>
            <path d="M216.980563,9.39136957 C215.954816,8.62863043 214.137384,7.33358696 211.854121,7.33358696 C208.282363,7.33358696 207.657047,9.9905 207.657047,10.8200652 C207.657047,13.1117391 209.935721,14.2731304 211.921816,15.2697609 C216.319679,17.4623478 217.909932,18.7573913 217.909932,22.1102174 C217.909932,26.3951522 214.269332,28.3227391 211.326332,28.3227391 C209.210584,28.3227391 207.159089,27.4920217 205.408205,26.2638043 L205.408205,23.2082391 C206.596879,24.4030435 208.7459,26.0644783 211.260932,26.0644783 C214.434553,26.0644783 215.4603,23.6391522 215.4603,22.279587 C215.4603,20.848587 215.030037,19.4890217 210.401553,17.2964348 C206.596879,15.5036522 205.207416,13.6094783 205.207416,11.0873696 C205.207416,7.53291304 208.118289,5.07417391 211.889689,5.07417391 C214.401279,5.07417391 216.087911,6.0373913 216.980563,6.56969565 L216.980563,9.39136957 Z" id="Fill-40" fill="#FEFEFE" mask="url(#mask-2)"></path>
        </g>
    </g>
</svg>