<svg viewBox="0 0 129 28" fill="none" xmlns="http://www.w3.org/2000/svg">
<g clip-path="url(#clip0_18694_183166)">
<path d="M3.38756 18.8261V13.3549C4.09081 12.7161 4.70697 12.3871 5.45539 12.3871C6.92641 12.3871 7.87484 13.7065 7.87484 16.1227C7.87484 18.539 6.95222 19.8164 5.43603 19.8164C4.68761 19.8164 4.07468 19.4874 3.39079 18.8261M0.597122 21.881H2.70689L2.99077 20.6487C3.93597 21.6585 4.88117 22.1004 6.11348 22.1004C8.72971 22.1004 10.5975 19.7035 10.5975 16.1227C10.5975 12.5419 8.68455 10.1451 6.20058 10.1451C5.03601 10.1451 4.2005 10.5419 3.41014 11.4645V5.90296H0.729386V19.2003C0.729386 19.7487 0.684223 20.652 0.597122 21.881Z" fill="white"/>
<path d="M14.7977 5.90296H12.0718V21.8843H14.7977V5.90296Z" fill="white"/>
<path d="M22.7658 16.2776V18.739C21.9303 19.5519 21.0947 19.9487 20.2399 19.9487C19.4495 19.9487 19.0076 19.4874 19.0076 18.7164C19.0076 17.355 20.2173 16.6292 22.7658 16.2776ZM23.0755 21.8843H25.6691C25.5594 21.2455 25.4917 20.7197 25.4917 20.3229V13.5517C25.4917 11.4419 23.9755 10.1451 21.2722 10.1451C19.2947 10.1451 17.8236 10.8935 16.8559 12.3871L18.7011 13.5517C19.3172 12.6936 20.1721 12.2323 21.227 12.2323C22.2819 12.2323 22.8529 12.7161 22.8529 13.5517V14.4517C18.4559 15.0033 16.3236 16.3647 16.3236 18.9358C16.3236 20.8487 17.4656 22.0133 19.4011 22.0133C20.6334 22.0133 21.7754 21.6391 22.8303 20.8713L23.0722 21.881L23.0755 21.8843Z" fill="white"/>
<path d="M36.405 19.1776C35.6147 21.0906 34.0533 22.1003 31.8758 22.1003C28.6241 22.1003 26.9079 20.0551 26.9079 16.1226C26.9079 12.1902 28.8209 10.1643 31.8758 10.1643C34.0308 10.1643 35.6115 11.2192 36.2954 13.1548L34.0114 14.1451C33.6146 12.9806 33.021 12.4096 32.0533 12.4096C30.3822 12.4096 29.6338 13.6419 29.6338 16.2775C29.6338 18.6518 30.3596 19.7938 31.8758 19.7938C32.9533 19.7938 33.7211 19.2454 34.2953 18.0582L36.405 19.1808V19.1776Z" fill="white"/>
<path d="M37.9858 5.90296H40.6697V15.0227L44.2086 10.3644H47.2184L43.8118 14.4517L47.5055 21.881H44.5376L41.9859 16.6066L40.6697 18.168V21.881H37.9858V5.90296Z" fill="white"/>
<path d="M49.1862 5.89966H50.7766V12.0225C52.0347 10.7192 53.209 10.1224 54.6897 10.1224C56.6801 10.1224 57.8059 11.2708 57.8059 13.3258V21.881H56.2381V13.9226C56.2381 12.2644 55.7284 11.5128 54.2703 11.5128C53.0315 11.5128 51.8831 12.087 50.7766 13.258V21.8777H49.1862V5.89966Z" fill="white"/>
<path d="M60.8673 16.0905C60.8673 13.0613 62.0158 11.4935 64.0513 11.4935C66.0869 11.4935 67.2128 13.0646 67.2128 16.1131C67.2128 19.1616 66.0643 20.7326 64.0513 20.7326C62.0384 20.7326 60.8673 19.1422 60.8673 16.0905ZM59.2318 16.0905C59.2318 19.9358 61.0448 22.0811 64.0513 22.0811C67.0579 22.0811 68.8709 19.9358 68.8709 16.0905C68.8709 12.2452 67.0579 10.1225 64.0513 10.1225C61.0448 10.1225 59.2318 12.2452 59.2318 16.0905Z" fill="white"/>
<path d="M70.3613 10.3225H71.9968V12.9516C72.7711 11.0967 73.8098 10.1902 75.3324 10.1902C75.4647 10.1902 75.5744 10.1902 75.7099 10.2128V11.8032H75.5099C73.9421 11.8032 72.7033 13.0645 71.9968 15.4517V21.8843H70.3613V10.3225Z" fill="white"/>
<path d="M77.4132 18.8744C78.3197 20.1131 79.4004 20.7293 80.7069 20.7293C82.1198 20.7293 83.0263 19.9551 83.0263 18.7841C83.0263 17.2356 81.723 17.1259 79.4681 16.442C77.5003 15.8452 76.5518 14.8065 76.5518 13.2806C76.5518 11.4031 77.9874 10.1192 80.0455 10.1192C81.7488 10.1192 83.0941 10.7386 84.2006 12.0418L83.1392 13.1032C82.2779 11.9967 81.2811 11.445 80.1326 11.445C78.9842 11.445 78.1874 12.1096 78.1874 13.1258C78.1874 13.6129 78.3842 14.0548 78.7616 14.3194C79.5358 14.871 80.6198 15.0033 81.8327 15.4033C83.7554 16.0227 84.6393 16.9937 84.6393 18.6066C84.6393 20.6616 83.0682 22.0777 80.5069 22.0777C78.6939 22.0777 77.0809 21.2809 76.1293 19.8906L77.41 18.8744H77.4132Z" fill="white"/>
<path d="M87.2362 15.0517C87.3265 12.7549 88.3846 11.4935 90.0879 11.4935C91.7912 11.4935 92.8267 12.7742 92.8719 15.0517H87.2362ZM93.6461 18.6325C92.959 19.981 91.788 20.71 90.3524 20.71C88.4943 20.71 87.2136 19.2519 87.2136 16.797V16.4228H94.5752V15.9356C94.5752 12.2 92.8719 10.1225 90.0653 10.1225C87.2587 10.1225 85.5554 12.2871 85.5554 16.0905C85.5554 19.8939 87.2136 22.0811 90.1976 22.0811C92.4073 22.0811 93.9106 21.2197 94.8171 19.3616L93.6461 18.6325Z" fill="white"/>
<g clip-path="url(#clip1_18694_183166)">
<path d="M128.817 0H100.817V28H128.817V0Z" fill="white"/>
<path d="M126.157 15.5601C126.157 15.7104 125.971 15.8608 125.562 15.8608C125.245 15.8608 124.911 15.7668 124.743 15.5413C124.613 15.3721 124.799 15.1278 124.687 14.9586C124.594 14.8083 124.408 14.8834 124.278 14.8083C124.129 14.7143 124.111 14.6579 123.999 14.4324C123.887 14.1692 123.497 13.7369 123.031 13.2671C122.641 12.8724 122.231 12.6656 122.045 12.6844C121.915 12.7032 121.878 12.7032 121.748 12.7032C121.413 12.7032 121.134 13.0227 120.65 13.2295C120.315 13.3798 120.129 13.455 119.924 13.4926L119.85 13.5866L120.278 13.5678C120.687 13.5678 121.208 13.5114 121.617 13.5114C122.027 13.5114 122.231 13.8873 122.399 14.282C122.715 15.0714 123.18 16.2179 123.757 17.1765C124.036 17.6276 124.259 17.9095 124.259 18.4733C124.259 18.6425 124.241 18.8868 124.018 18.8868C123.701 18.8868 122.901 18.5485 122.901 18.1914C122.901 17.9095 123.124 17.7967 123.124 17.5148C123.124 17.3456 122.864 17.3644 122.808 17.2141C122.603 16.3683 122.362 15.5225 121.896 15.015C121.655 14.7519 121.617 14.6391 121.376 14.6391C121.245 14.6391 121.115 14.6767 121.003 14.7143C120.352 14.9586 119.478 15.7104 118.38 16.03C117.971 16.1615 117.896 15.9172 117.468 15.9924C117.152 16.0675 116.892 16.2743 116.408 16.4059C115.757 16.5938 114.622 16.6878 113.71 16.5562C113.059 16.4622 112.222 16.3307 111.868 16.3495C111.589 17.1389 111.012 18.1914 110.138 18.6049C109.673 18.8117 109.542 19.0936 109.673 19.6199C109.84 20.2777 110.417 20.7476 110.715 21.3114C110.994 21.7813 111.44 22.5519 111.905 22.7963C112.371 23.0406 112.668 23.3977 112.668 23.7172C112.668 23.8676 112.612 23.9428 112.464 23.9428H111.515C111.366 23.9428 111.291 23.8488 111.273 23.7924C111.143 23.5481 111.236 23.3225 111.05 23.097C110.919 22.9466 110.826 22.9842 110.659 22.8526C110.38 22.5707 110.584 22.4203 110.38 22.0632C109.784 21.1047 109.524 20.8791 109.022 20.1837C108.742 19.8266 108.389 19.6386 108.389 19.1688C108.389 18.5861 108.966 18.4921 108.947 17.9095C108.575 18.1914 108.147 18.3982 107.477 18.4921C107.384 18.5109 107.161 18.6801 107.068 18.7929C106.845 19.0184 106.752 19.2627 106.714 19.6011C106.64 20.3905 106.491 21.1799 106.584 21.9693C106.714 22.4767 106.807 22.6459 107.217 22.9278C107.477 23.097 107.775 23.3413 107.812 23.7172C107.812 23.8112 107.775 23.9428 107.645 23.9428H106.621C106.528 23.9428 106.435 23.8676 106.398 23.8112C106.287 23.6045 106.361 23.4729 106.305 23.2285C106.212 22.7587 105.673 22.7775 105.673 22.2888C105.673 22.1384 105.766 21.9505 105.766 21.6497C105.803 20.9919 105.989 19.9018 105.803 18.6049C105.71 17.8531 106.491 17.8155 106.901 17.1577C107.142 16.7818 107.068 16.9321 107.217 16.669C107.366 16.3871 107.328 16.1803 107.31 16.0112C107.31 15.7856 107.087 15.3345 107.235 14.3948C107.291 13.9813 107.496 13.549 107.775 13.1919C107.775 13.1731 107.775 13.1167 107.682 13.1167C107.273 13.1543 107.273 13.0415 107.012 13.0415C106.752 13.0415 106.547 13.2671 106.51 13.3798C106.38 13.3234 106.324 13.1731 106.324 13.0979C106.324 12.9475 106.361 12.816 106.491 12.6844C106.547 12.628 106.491 12.5904 106.417 12.5904C106.1 12.5904 105.803 12.9851 105.728 13.2483C105.542 13.2107 105.524 12.9663 105.449 12.9663C105.356 12.9663 105.3 13.0979 105.3 13.2295C105.3 14.1504 106.789 14.3572 106.789 15.5789C106.789 16.9885 105.114 16.6878 105.114 17.1953C105.114 17.2892 105.189 17.3832 105.319 17.4396C105.263 17.5712 105.114 17.6276 104.966 17.6276C104.593 17.6276 104.314 17.3456 104.314 16.9697C104.314 16.1991 105.338 16.1803 105.338 15.5977C105.338 15.3157 105.17 15.2406 105.003 15.109C104.035 14.4136 103.477 13.7181 103.477 12.5716C103.477 11.3311 104.333 10.3914 105.431 10.3914C107.031 10.3914 107.087 12.2709 108.538 12.4213C109.077 12.0454 109.729 11.8198 110.361 11.8198C111.31 11.8198 111.719 12.0642 112.724 12.0642C113.133 12.0642 113.803 11.9514 114.603 11.3875C114.901 11.1808 115.031 11.1432 115.31 10.8989C115.943 10.3538 116.538 9.28246 116.538 8.51185C116.538 8.3051 116.482 8.15474 116.371 8.15474C116.036 8.15474 115.719 8.47426 115.385 8.81258C115.161 9.03812 115.496 9.15089 115.012 9.41402C114.845 9.508 114.64 9.33884 114.454 9.33884C114.064 9.33884 113.896 8.86896 113.896 8.47426C113.896 8.26751 114.045 8.21113 114.138 8.02317C114.343 7.62847 114.324 7.47811 114.51 7.10221C114.622 6.83907 114.826 6.66992 114.808 6.48196C114.808 6.40678 114.752 6.36919 114.752 6.29401C114.752 5.89931 115.273 5.63618 115.273 5.24147C115.273 5.01593 115.031 4.92196 114.975 4.7528C114.919 4.58364 114.957 4.52725 114.957 4.52725C114.975 4.48966 114.994 4.48966 115.031 4.48966C115.236 4.48966 115.31 4.71521 115.496 4.82798C115.515 4.56485 115.422 4.50846 115.422 4.32051C115.422 4.22653 115.403 4.05737 115.515 4.05737C115.645 4.05737 115.626 4.22653 115.738 4.32051C115.887 4.43328 116.017 4.41448 116.166 4.52725C116.371 4.65882 116.482 4.88436 116.557 4.88436C116.761 4.92196 116.817 4.65882 116.706 4.52725C116.929 4.50846 117.171 4.69641 117.468 4.69641C117.934 4.69641 118.101 4.82798 118.194 4.90316C118.492 5.16629 118.548 5.37304 118.882 5.37304C119.05 5.37304 119.143 5.22268 119.18 5.16629C119.403 5.33545 119.422 5.76774 119.18 6.14365C119.273 6.44437 119.701 6.48196 119.906 6.63232C120.11 6.78269 120.073 6.85787 120.222 6.93305C120.334 7.00823 120.445 6.98943 120.52 6.93305C120.613 7.34654 120.278 7.70365 119.85 7.76004C119.868 8.28631 120.408 8.60583 120.65 8.73739C120.501 9.05691 120.241 9.15089 120.017 9.20728C120.092 9.5268 120.427 9.99668 120.259 10.4102C120.11 10.335 119.868 10.4102 119.868 10.6357C119.868 10.8988 120.203 11.0304 119.85 11.2184C119.701 11.3123 119.664 11.5379 119.943 11.7634C120.315 11.6695 120.669 11.6695 121.096 11.6695C121.357 11.6695 121.692 11.5943 121.934 11.5943C122.362 11.5943 122.622 11.7634 122.938 12.1205C123.738 12.9663 124.464 13.8873 125.283 14.5075C125.711 14.8271 126.157 15.0526 126.157 15.5601Z" fill="#231F20"/>
<path d="M103.979 12.1956C104.147 12.1956 104.463 11.2371 105.114 11.2371C105.3 11.2371 105.338 11.3122 105.338 11.3874C105.338 11.519 105.114 11.6318 105.114 11.8009C105.114 11.8385 105.133 11.8761 105.189 11.8761C105.338 11.8761 105.468 11.519 106.1 11.519C106.268 11.519 106.417 11.5378 106.566 11.5754C106.64 11.5942 106.789 11.6694 106.714 11.4626C106.566 11.0115 106.063 10.598 105.375 10.598C104.686 10.598 103.961 11.2183 103.886 11.9701C103.905 12.1016 103.905 12.1956 103.979 12.1956Z" fill="#6D6E70"/>
<path d="M115.887 6.21876C115.701 6.14357 115.664 6.0496 115.738 5.80526C115.775 5.56092 115.794 5.44815 115.682 5.42935C115.589 5.39176 115.459 5.46694 115.329 5.59851C115.217 5.74887 115.031 5.95562 114.975 6.10598C114.919 6.31273 115.161 6.27514 114.994 6.61346C114.696 7.15852 114.622 7.29009 114.473 7.66599C114.343 8.07949 114.25 8.13587 114.175 8.26744C114.082 8.38021 114.287 8.39901 114.51 8.32383C114.752 8.22985 114.771 8.53057 114.678 8.73732C114.603 8.88768 114.659 8.94407 114.864 8.77491C115.05 8.62455 114.771 8.51178 114.826 8.0419C114.901 7.6284 114.975 7.38406 115.236 6.97057C115.459 6.61346 115.645 6.35032 116.017 6.48189C116.166 6.55707 116.092 6.31273 115.887 6.21876Z" fill="#6D6E70"/>
<path d="M123.869 18.5296C123.943 18.5296 123.962 18.4357 123.962 18.3417C123.962 18.1349 123.85 17.8342 123.683 17.7026C123.645 18.0034 123.497 18.2101 123.497 18.3417C123.497 18.4357 123.776 18.5296 123.869 18.5296Z" fill="#6D6E70"/>
<path d="M125.655 15.6164C125.766 15.6164 125.934 15.5789 125.934 15.4849C125.934 15.3157 125.673 15.015 125.45 14.9398C125.599 15.2405 125.45 15.6164 125.655 15.6164Z" fill="#6D6E70"/>
<path d="M117.766 11.6506C119.385 12.4024 119.292 13.7744 119.422 13.4361C119.478 13.2857 119.701 12.6091 119.124 11.9513C118.678 11.425 118.51 11.5566 118.678 11.1243C119.385 9.39512 119.831 6.78258 117.71 5.88041C117.468 5.78643 117.264 5.78643 117.264 5.82402C117.264 5.86161 117.487 5.93679 117.766 6.12475C119.18 7.06451 118.734 9.63946 117.45 10.8799C117.04 11.3122 117.245 11.4062 117.766 11.6506Z" fill="#6D6E70"/>
<path d="M112.222 23.6796C112.333 23.6796 112.277 23.5104 112.24 23.4352C112.147 23.2661 111.961 23.1533 111.794 23.0781C111.831 23.2473 111.85 23.6796 112.017 23.6796H112.222Z" fill="#6D6E70"/>
<path d="M107.328 23.6796C107.44 23.6796 107.366 23.5104 107.31 23.4352C107.217 23.2661 107.012 23.1533 106.845 23.0781C106.882 23.2473 106.919 23.6796 107.087 23.6796H107.328Z" fill="#6D6E70"/>
<path d="M113.264 13.8497C114.157 13.7557 114.305 13.549 114.454 12.8723C114.529 12.5528 114.752 12.2145 114.957 12.0078C115.087 11.8574 115.217 11.7446 115.347 11.5379C115.385 11.4439 115.422 11.3875 115.347 11.4063C115.254 11.4815 114.938 11.6882 114.808 11.7822C114.175 12.2333 113.208 12.4401 112.836 12.4401C112.017 12.4401 111.31 12.1957 110.566 12.1957C108.333 12.1957 107.496 13.9625 107.608 14.9962C107.626 15.1654 107.645 15.1654 107.701 15.1654C107.849 15.1654 107.998 14.5639 108.556 14.0189C109.375 13.2295 110.268 12.7784 111.533 12.7784C112.445 12.7784 112.836 13.0791 112.836 13.1919C112.836 13.4174 112.445 13.4362 112.482 13.6617C112.464 13.7557 112.668 13.9249 113.264 13.8497Z" fill="#6D6E70"/>
</g>
</g>
<defs>
<clipPath id="clip0_18694_183166">
<rect width="128" height="28" fill="white" transform="translate(0.597122)"/>
</clipPath>
<clipPath id="clip1_18694_183166">
<rect width="28" height="28" fill="white" transform="translate(100.817)"/>
</clipPath>
</defs>
</svg>
