<svg width="103" height="48" viewBox="0 0 103 48" fill="none" xmlns="http://www.w3.org/2000/svg">
<g clip-path="url(#clip0_404_179494)">
<mask id="mask0_404_179494" style="mask-type:alpha" maskUnits="userSpaceOnUse" x="52" y="0" width="51" height="9">
<path fill-rule="evenodd" clip-rule="evenodd" d="M52.9485 0H102.336V8.89342H52.9485V0Z" fill="white"/>
</mask>
<g mask="url(#mask0_404_179494)">
<path fill-rule="evenodd" clip-rule="evenodd" d="M102.099 0.37387C102.47 0.205717 102.357 -0.121246 102.059 0.0437925C96.4566 3.05809 91.3061 5.59284 78.4642 3.7089C68.6428 2.26714 61.6956 -1.18 53.0264 8.66629C52.8614 8.87181 52.9735 9.0026 53.1914 8.75972C60.2227 0.420576 67.0142 5.74542 77.6047 6.9692C87.504 8.11513 92.4084 6.02879 102.099 0.37387Z" fill="currentColor"/>
</g>
<path fill-rule="evenodd" clip-rule="evenodd" d="M0.241955 47.6277C-0.141059 47.7927 -0.0258414 48.1197 0.285553 47.9546C6.05569 44.9466 11.3618 42.4181 24.593 44.2989C34.7071 45.7375 41.866 49.1784 50.7968 39.3508C50.965 39.1453 50.8497 39.0145 50.6287 39.2574C43.3825 47.5779 36.3886 42.2655 25.4773 41.0448C15.2823 39.902 10.2284 41.9852 0.241955 47.6277Z" fill="black"/>
<path fill-rule="evenodd" clip-rule="evenodd" d="M22.463 14.7383C21.6472 13.8197 20.4919 13.2934 19.4301 13.3059C18.3682 13.3152 16.8984 13.8539 16.8984 16.9865C16.8984 19.3687 17.8046 21.0596 19.7975 20.9942C21.6347 20.9319 22.6779 19.9292 23.0796 19.4839C23.0796 19.4839 23.0454 20.77 23.1917 21.5204C22.4413 21.8007 21.3981 22.5605 18.5021 22.5605C15.1982 22.5605 11.9535 20.9506 11.9535 16.9865C11.9535 13.1938 15.4909 11.7925 18.39 11.7925C20.3269 11.7925 21.1801 12.3187 23.0267 12.3966C22.7869 13.0941 22.6561 13.7076 22.463 14.7383Z" fill="black"/>
<path fill-rule="evenodd" clip-rule="evenodd" d="M31.534 13.1846C29.9833 13.1846 29.3231 14.7758 29.3231 17.1206C29.3231 19.4654 29.9833 21.0566 31.534 21.0566C33.0847 21.0566 33.7449 19.4654 33.7449 17.1206C33.7449 14.7758 33.0847 13.1846 31.534 13.1846ZM38.8113 17.1175C38.8113 20.3124 36.2329 22.5607 31.534 22.5607C26.8351 22.5607 24.2567 20.3124 24.2567 17.1175C24.2567 13.9257 26.8351 11.6743 31.534 11.6743C36.2298 11.6774 38.8113 13.9257 38.8113 17.1175Z" fill="black"/>
<path fill-rule="evenodd" clip-rule="evenodd" d="M52.416 11.9575C52.1731 12.8325 51.8711 13.9971 51.7154 14.8285C50.7345 13.8414 49.355 13.5518 48.2651 13.5518V20.3464C48.2651 21.3118 48.7322 22.2086 48.7322 22.2086H43.0337C43.2548 21.919 43.5226 21.536 43.5226 20.4399V13.5985C42.1867 13.5985 40.7418 13.9348 39.4028 14.8784C39.6052 14.2493 39.873 13.3525 40.0941 11.917C41.4082 12.1848 44.0333 12.163 46.1943 12.163C48.3523 12.1599 50.3919 12.2284 52.416 11.9575Z" fill="black"/>
<path fill-rule="evenodd" clip-rule="evenodd" d="M66.024 11.9575C65.778 12.8325 65.479 13.9971 65.3233 14.8285C64.3424 13.8414 62.963 13.5518 61.87 13.5518V20.3464C61.87 21.3118 62.3371 22.2086 62.3371 22.2086H56.6385C56.8596 21.919 57.1274 21.536 57.1274 20.4399V13.5985C55.7916 13.5985 54.3467 13.9348 53.0077 14.8784C53.2101 14.2493 53.4779 13.3525 53.699 11.917C55.0131 12.1848 57.6412 12.163 59.7992 12.163C61.9603 12.1599 63.9968 12.2284 66.024 11.9575Z" fill="black"/>
<path fill-rule="evenodd" clip-rule="evenodd" d="M72.663 17.1794C72.663 19.4557 72.5322 21.5016 73.2422 22.2084H67.3257C68.0357 21.5016 67.9049 19.4557 67.9049 17.1794C67.9049 14.9031 68.0357 12.8573 67.3257 12.1504H73.2422C72.5322 12.8541 72.663 14.9031 72.663 17.1794Z" fill="black"/>
<path fill-rule="evenodd" clip-rule="evenodd" d="M0.304272 19.266C0.276246 20.278 0.213966 21.1406 0.0644966 21.9128C0.98311 22.0934 2.04185 22.5636 5.54192 22.5636C9.3783 22.5636 10.7671 20.8416 10.7671 19.1196C10.7671 17.5782 9.82359 16.5413 7.89606 15.7192C5.71008 14.7881 4.66691 14.5608 4.66691 13.8851C4.66691 13.636 4.95962 13.1969 5.99033 13.1969C7.211 13.1969 8.62473 13.7263 9.5122 14.7041C9.70838 13.882 9.79868 13.3744 10.1755 12.3063C8.43478 12.4309 8.04242 11.8112 5.14957 11.6866C1.78962 11.5434 -0.0164649 12.7672 0.00221871 14.7259C0.0146745 15.8967 0.372778 17.0457 2.85148 18.0671C5.33018 19.0916 5.81284 19.1476 5.75679 19.8576C5.70074 20.5676 5.08417 21.0503 3.67044 20.96C2.25671 20.8728 0.899035 19.8825 0.304272 19.266Z" fill="black"/>
<path fill-rule="evenodd" clip-rule="evenodd" d="M75.9107 19.266C75.8827 20.278 75.8173 21.1406 75.6709 21.9128C76.5896 22.0934 77.6483 22.5636 81.1484 22.5636C84.9847 22.5636 86.3736 20.8416 86.3736 19.1196C86.3736 17.5782 85.43 16.5413 83.5025 15.7192C81.3165 14.7881 80.2733 14.5608 80.2733 13.8851C80.2733 13.636 80.5661 13.1969 81.5968 13.1969C82.8174 13.1969 84.2312 13.7263 85.1186 14.7041C85.3179 13.882 85.4051 13.3744 85.7788 12.3063C84.0412 12.4309 83.6489 11.8112 80.756 11.6866C77.3961 11.5434 75.59 12.7672 75.6087 14.7259C75.6211 15.8967 75.9792 17.0457 78.4579 18.0671C80.9366 19.0916 81.4193 19.1476 81.3632 19.8576C81.3072 20.5676 80.6906 21.0503 79.2769 20.96C77.86 20.8728 76.5024 19.8825 75.9107 19.266Z" fill="black"/>
<path fill-rule="evenodd" clip-rule="evenodd" d="M101.769 17.1794C101.769 14.9031 101.638 12.8573 102.345 12.1504H96.4441C97.0296 12.7358 97.042 14.2492 97.0264 16.0459H93.2274C93.215 14.2492 93.2243 12.7358 93.8097 12.1504H87.9088C88.6188 12.8573 88.4849 14.9031 88.4849 17.1794C88.4849 19.4557 88.6157 21.5016 87.9088 22.2084H93.8097C93.1807 21.5794 93.2119 19.8948 93.2274 17.9268H93.2305C93.2804 17.6621 93.763 17.6465 95.1269 17.6434C96.4908 17.6465 96.9735 17.6621 97.0233 17.9268H97.0264C97.0389 19.8917 97.0731 21.5794 96.4441 22.2084H102.345C101.638 21.5016 101.769 19.4557 101.769 17.1794Z" fill="black"/>
<path fill-rule="evenodd" clip-rule="evenodd" d="M58.1551 27.2625C56.6043 27.2625 55.9442 28.8537 55.9442 31.1985C55.9442 33.5433 56.6043 35.1346 58.1551 35.1346C59.7058 35.1346 60.366 33.5433 60.366 31.1985C60.366 28.8537 59.7058 27.2625 58.1551 27.2625ZM65.4324 31.1985C65.4324 34.3934 62.854 36.6417 58.1551 36.6417C53.4562 36.6417 50.8778 34.3934 50.8778 31.1985C50.8778 28.0068 53.4562 25.7554 58.1551 25.7554C62.854 25.7554 65.4324 28.0068 65.4324 31.1985Z" fill="black"/>
<path fill-rule="evenodd" clip-rule="evenodd" d="M31.6024 31.2575C31.6024 33.5338 31.4716 35.5797 32.1816 36.2866H26.2651C26.9751 35.5797 26.8443 33.5338 26.8443 31.2575C26.8443 28.9812 26.9751 26.9354 26.2651 26.2285H32.1816C31.4748 26.9354 31.6024 28.9812 31.6024 31.2575Z" fill="black"/>
<path fill-rule="evenodd" clip-rule="evenodd" d="M87.3856 33.3441C87.3545 34.3561 87.2922 35.2187 87.1427 35.991C88.0645 36.1716 89.1232 36.6418 92.6202 36.6418C96.4565 36.6418 97.8454 34.9198 97.8454 33.1977C97.8454 31.6563 96.9018 30.6194 94.9743 29.7973C92.7883 28.8663 91.7452 28.6389 91.7452 27.9632C91.7452 27.7141 92.0379 27.275 93.0686 27.275C94.2892 27.275 95.703 27.8044 96.5904 28.7822C96.7866 27.9601 96.8769 27.4525 97.2506 26.3844C95.513 26.509 95.1207 25.8893 92.2278 25.7648C88.8679 25.6215 87.0618 26.8453 87.0805 28.804C87.0898 29.9748 87.451 31.1239 89.9297 32.1452C92.4084 33.1697 92.8911 33.2258 92.835 33.9358C92.779 34.6457 92.1624 35.1284 90.7487 35.0412C89.3381 34.954 87.9804 33.9638 87.3856 33.3441Z" fill="black"/>
<path fill-rule="evenodd" clip-rule="evenodd" d="M21.1957 36.2867L24.7301 26.2692H21.2611C21.5788 26.3969 22.4538 27.5801 22.0396 28.8226C21.7251 29.763 20.3363 33.4998 20.3363 33.4998L18.1721 26.2287H12.8223C13.5572 26.5775 14.096 28.0566 13.7783 28.9005C13.3673 29.9903 12.1061 33.5309 12.1061 33.5309L9.97309 26.2256H4.49878C5.16828 26.6397 5.29595 27.1349 5.45476 27.5459C5.61357 27.9601 7.68434 34.5959 7.82758 35.0879C7.97082 35.583 7.95525 35.994 7.65009 36.2805H12.8877L14.8308 30.9806C14.8308 30.9806 15.8366 34.3872 16.0577 35.0848C16.2788 35.7854 15.9768 36.1809 15.8678 36.2774H21.1957V36.2867Z" fill="black"/>
<path fill-rule="evenodd" clip-rule="evenodd" d="M82.6026 36.2867L86.1369 26.2692H82.668C82.9856 26.3969 83.8606 27.5801 83.4465 28.8226C83.132 29.763 81.7432 33.4998 81.7432 33.4998L79.579 26.2287H74.2292C74.9641 26.5775 75.5059 28.0566 75.1852 28.9005C74.7741 29.9903 73.513 33.5309 73.513 33.5309L71.3831 26.2256H65.9056C66.5751 26.6397 66.7028 27.1349 66.8616 27.5459C67.0204 27.9601 69.0912 34.5959 69.2344 35.0879C69.3777 35.583 69.3621 35.994 69.057 36.2805H74.2946L76.2377 30.9806C76.2377 30.9806 77.2435 34.3872 77.4646 35.0848C77.6857 35.7854 77.3836 36.1809 77.2746 36.2774H82.6026V36.2867Z" fill="black"/>
<path fill-rule="evenodd" clip-rule="evenodd" d="M41.262 34.8977C40.7824 34.8977 40.4368 34.8946 40.1908 34.8884C40.0724 33.9262 40.116 32.637 40.116 31.2575C40.116 29.8781 40.0724 28.5889 40.1908 27.6267C40.4368 27.6204 40.7824 27.6173 41.262 27.6173C42.4453 27.6173 44.2046 28.0626 44.2046 31.2575C44.2046 34.4929 42.4453 34.8977 41.262 34.8977ZM42.629 26.2285H40.6952H39.5804H34.7881C35.4981 26.9323 35.3673 28.9812 35.3673 31.2575C35.3673 33.5338 35.4981 35.5797 34.7881 36.2866H39.5836H40.6983H42.6321C47.0446 36.2866 49.2243 34.3154 49.2243 31.2575C49.2212 28.1996 47.0415 26.2285 42.629 26.2285Z" fill="black"/>
</g>
<defs>
<clipPath id="clip0_404_179494">
<rect width="102.345" height="48" fill="white"/>
</clipPath>
</defs>
</svg>
