<svg width="158" height="44" viewBox="0 0 158 44" fill="none" xmlns="http://www.w3.org/2000/svg">
<path d="M10.6809 42.4675L9.80894 41.8575C9.43933 37.4617 8.06497 34.7973 7.33652 33.4247C8.11341 32.9116 9.40345 31.7292 9.40345 30.0319C9.40345 28.3345 8.01832 27.4392 8.01832 25.3382C8.01832 24.1791 8.41304 23.2121 9.05717 22.4603C8.63912 21.8628 8.14929 21.5399 7.42085 21.5399C6.60807 21.5399 5.87962 22.2091 5.87962 23.2354C5.87962 23.8329 6.14157 24.4895 6.70316 24.7766C6.29767 25.3382 5.25703 25.3974 4.68468 24.5487H4.67212C4.67212 26.5547 6.79825 27.9524 6.79825 30.0911C6.79825 31.4762 5.7002 32.8147 4.11053 32.8147C2.92815 32.8147 1.81753 32.2656 1.24339 31.1658C2.53342 31.4995 3.46462 30.9864 3.46462 29.8399C3.46462 27.7622 0 25.7186 0 22.184C0 19.4012 2.1387 17.8599 4.57523 17.8599C6.79646 17.8599 8.77906 18.888 10.2736 21.4681C11.038 20.8939 11.9692 20.5728 12.9129 20.3808C15.4571 19.8784 18.5754 20.3324 20.9635 19.3168C22.0275 18.8629 22.9102 18.0627 22.9102 17.1423C22.9102 16.7009 22.6591 16.4371 22.3002 16.4371C22.1208 16.4371 21.8463 16.5215 21.6902 16.9144C21.2237 16.5089 21.0802 16.0783 21.0802 15.6477C21.0802 14.9318 21.3062 14.5963 21.5574 14.25C21.3188 13.6292 20.5778 13.4857 20.0754 14.0939C19.4546 12.9474 19.8368 11.3703 21.4498 10.893V10.8805C19.5623 10.5701 19.0617 9.40025 19.2752 8.09765C19.4546 8.25375 19.6573 8.34884 19.8601 8.34884C20.1705 8.34884 20.3625 8.09765 20.3625 7.73881C20.3625 7.35665 20.1723 6.75918 19.1926 6.1025C20.0521 4.81246 21.5341 4.62048 22.2859 5.09953L22.2984 5.08697C21.9163 4.56127 21.7243 3.64084 22.3343 2.73297C22.4778 2.93572 22.8241 3.23535 23.3624 3.23535C24.9395 3.23535 24.9987 1.50394 26.2044 1.33708C26.1326 1.87534 26.2762 2.62711 26.9454 2.62711C27.8174 2.62711 28.2229 1.31375 28.4382 0.500977C28.8204 0.716282 29.0949 1.08589 29.0357 1.77845H29.0482L29.5739 0.716282C30.0153 1.08589 30.0996 1.70848 29.9561 2.26827C29.9202 2.41181 29.8718 2.51946 29.8718 2.60199C29.8718 3.02005 31.1259 3.33044 31.1259 4.26164C31.1259 4.41773 31.0775 4.58459 31.0057 4.77478L33.8729 8.3937C34.0523 8.61977 34.1115 8.86019 34.1115 9.06294C34.1115 9.81471 33.4548 10.6149 32.5111 10.6149C31.5673 10.6149 31.2443 10.1018 31.1977 9.86316L28.702 8.64489C28.5584 8.88352 28.3916 9.27824 28.3916 9.71962C28.3916 12.4666 32.2742 12.5383 33.218 16.1339L37.0648 14.8564C39.8117 17.5316 42.7147 20.1242 44.5071 21.1864L45.6411 22.6325H42.2016V21.6296L41.2578 21.3676C39.8117 19.0979 37.8542 17.8564 36.8028 17.546C35.5253 18.3228 34.569 19.1338 33.4458 20.388C35.2741 20.2444 37.3159 20.4239 39.024 20.7468L38.1287 28.4278L37.4003 30.3979L35.4661 32.0467V28.6539H36.505L36.2179 27.5792C37.0666 25.3328 37.1742 23.8293 37.1742 23.0165C37.1742 22.7653 37.1616 22.5267 37.0791 22.4424C37.0073 22.3706 36.7095 22.4424 36.4458 22.5141C35.7532 22.7061 34.6175 23.2426 33.1606 24.4249C31.8472 25.4997 31.1295 25.9895 29.3497 25.7868C27.3437 27.8644 23.0915 28.8692 19.3631 28.8208C19.076 31.8422 15.7316 33.5862 15.7316 35.0197C15.7316 35.5329 16.2214 36.369 17.2962 37.982C18.4911 39.7744 19.625 41.4933 21.0353 42.0441L22.2302 43.501H18.7782L18.7549 42.4621L17.7752 41.9239C16.652 39.8462 14.8973 37.5514 12.4841 35.4019C13.069 34.2321 13.3794 33.0371 13.392 31.9014C12.3047 33.5377 10.7168 33.5503 10.4297 34.7919C10.3221 35.2584 10.3813 36.1662 10.6325 37.3361C11.0021 39.1034 11.3376 41.2062 12.9739 42.019L14.1079 43.501H10.6791V42.4621L10.6809 42.4675Z" fill="black"/>
<path d="M4.73132 18.8292C5.4472 18.8292 6.46273 18.996 7.16785 19.6527C5.49565 18.8884 3.01067 19.3908 2.83125 21.4093C2.54417 21.0989 2.44908 20.7167 2.42576 20.3812C1.80496 20.6682 1.33847 21.5277 1.22005 22.4481C0.730229 20.2502 2.51008 18.8292 4.73132 18.8292ZM13.9894 21.2191C16.3075 20.932 19.46 21.1957 22.04 19.9165C23.2457 19.319 24.464 18.316 24.464 16.9542C24.464 15.3179 22.4455 13.7049 22.4455 10.2295C22.4455 7.95987 23.4485 5.34392 26.1003 3.9229C24.4156 5.3798 23.6154 7.052 23.6154 9.08305C23.6154 11.1141 24.4156 13.2761 27.1159 14.3383C29.0267 15.0901 30.8065 15.1152 31.5709 16.703C30.8909 16.1648 30.0297 15.9872 29.4214 15.9872C25.5388 15.9872 24.0693 23.2501 19.5192 25.3152C20.4863 22.7944 17.5725 21.9834 14.8847 22.0426C12.6868 22.0911 9.32987 22.6885 9.29399 26.1639C8.67319 23.835 10.0099 21.7089 13.9876 21.2191H13.9894ZM31.9548 9.44189C31.9548 9.23914 32.0751 8.89286 32.0751 8.59323C32.0751 8.43713 32.0392 8.24694 31.849 7.94911C31.5745 7.53105 31.0488 6.80261 30.5464 6.26434C29.8771 5.55922 29.2922 5.35647 28.3844 5.41568C29.1254 5.01019 29.2922 4.62803 29.2922 4.19742C29.2922 3.82781 29.0895 3.43308 28.754 3.06348C29.2312 3.1478 30.5105 3.67351 30.5105 4.36607C30.5105 4.50961 30.4387 4.64059 30.2952 4.78412L33.3651 8.6309C33.2574 8.79777 33.0188 8.726 32.8161 8.726C32.6851 8.726 32.6008 8.81033 32.6008 8.95386C32.6008 9.21582 32.8035 9.53877 32.9237 9.71819C32.8286 9.7774 32.6492 9.84917 32.4572 9.84917C32.2186 9.84917 31.9548 9.76484 31.9548 9.44368V9.44189Z" fill="#006A4D"/>
<path d="M51.9958 30.8484V16.0766C51.9958 15.25 51.8031 14.3062 51.5189 13.1318H56.272C55.9878 14.3062 55.7951 15.25 55.7951 16.0766V30.4232H60.9991C62.7418 30.4232 63.8406 30.3457 65.0031 30.0238L63.8287 33.7952H51.5189C51.8031 32.6208 51.9958 31.677 51.9958 30.8504V30.8484Z" fill="black"/>
<path d="M67.3497 30.8484V16.0766C67.3497 15.25 67.155 14.3082 66.8728 13.1318H71.6258C71.3417 14.3062 71.1489 15.25 71.1489 16.0766V30.4232H76.353C78.0957 30.4232 79.1945 30.3457 80.3569 30.0238L79.1826 33.7952H66.8768C67.1609 32.6208 67.3537 31.677 67.3537 30.8504L67.3497 30.8484Z" fill="black"/>
<path d="M80.8677 23.463C80.8677 17.5615 85.1935 12.874 91.4169 12.874C97.6404 12.874 101.966 17.5615 101.966 23.463C101.966 29.3646 97.6404 34.052 91.4169 34.052C85.1935 34.052 80.8677 29.3646 80.8677 23.463ZM98.1332 23.463C98.1332 19.2008 95.6017 16.258 91.4189 16.258C87.2362 16.258 84.7047 19.2028 84.7047 23.463C84.7047 27.7233 87.2362 30.6681 91.4189 30.6681C95.6017 30.6681 98.1332 27.7233 98.1332 23.463Z" fill="black"/>
<path d="M109.533 26.149C106.37 22.9201 103.62 18.5307 102.225 13.1318H106.59C106.656 14.0618 106.823 14.9142 107.17 15.9077C108.164 18.7492 109.676 21.1238 111.407 23.1386C113.189 21.2152 114.828 18.7472 115.824 15.9077C116.172 14.9142 116.341 14.0618 116.404 13.1318H120.641C119.26 18.5287 116.496 22.9201 113.332 26.149V33.7932H109.535V26.149H109.533Z" fill="black"/>
<path d="M123.734 30.8484V16.0766C123.734 15.25 123.54 14.3082 123.257 13.1318H130.23C136.855 13.1318 141.038 17.3682 141.038 23.4625C141.038 29.5568 136.853 33.7932 130.23 33.7932H123.257C123.542 32.6189 123.734 31.675 123.734 30.8484ZM137.203 23.4486C137.203 18.9678 134.659 16.5019 129.972 16.5019H127.532V30.4232H129.972C134.659 30.4232 137.203 27.9572 137.203 23.4506V23.4486Z" fill="black"/>
<path d="M143.645 32.6313L143.581 28.4982C146.202 30.1892 147.959 30.9641 149.999 30.9641C152.324 30.9641 153.808 30.0481 153.808 28.3949C153.808 27.298 153.177 26.4456 151.096 25.6051L147.778 24.2757C144.718 23.0497 143.349 21.3568 143.349 18.71C143.349 15.1333 146.138 12.874 150.438 12.874C152.686 12.874 154.804 13.5834 156.03 14.1656V18.1437C153.705 16.6077 152 15.9738 150.258 15.9738C148.088 15.9738 147.017 16.8263 147.017 18.1298C147.017 19.4333 147.7 20.093 149.328 20.7646L153.498 22.4556C155.927 23.4372 157.514 25.2057 157.514 27.9041C157.514 31.443 154.75 34.05 149.83 34.05C147.247 34.05 145.014 33.2373 143.645 32.6293V32.6313Z" fill="black"/>
</svg>
